<svg xmlns="http://www.w3.org/2000/svg" viewBox="0 0 18.95 34.67"><defs><style>.cls-1{fill:#5e1834;}</style></defs><title>cactus</title><g id="Layer_2" data-name="Layer 2"><g id="final"><path class="cls-1" d="M9.47,34.67a1.6,1.6,0,0,1-1.6-1.61V1.61a1.61,1.61,0,1,1,3.21,0V33.06A1.61,1.61,0,0,1,9.47,34.67Z"/><path class="cls-1" d="M9.47,21.23H4.81A4.82,4.82,0,0,1,0,16.42V7.52a1.61,1.61,0,0,1,3.22,0v8.9A1.6,1.6,0,0,0,4.81,18H9.47a1.61,1.61,0,1,1,0,3.21Z"/><path class="cls-1" d="M14.13,24.64H9.47a1.61,1.61,0,0,1,0-3.22h4.66a1.6,1.6,0,0,0,1.6-1.6v-8.9a1.61,1.61,0,0,1,3.22,0v8.9A4.82,4.82,0,0,1,14.13,24.64Z"/></g></g></svg>