<svg xmlns="http://www.w3.org/2000/svg" viewBox="0 0 263.7 84"><defs><style>.cls-1{fill:#fff9ee;}.cls-2{fill:#5e1834;}.cls-3{fill:#00a14b;}.cls-4{fill:#8c4160;}.cls-5{fill:#dd2b45;}.cls-6{fill:#fff;}.cls-7{fill:#fbb040;}.cls-8{opacity:0.4;}.cls-9{fill:none;}</style></defs><title>ETW_logo-horizontal</title><g id="Layer_2" data-name="Layer 2"><g id="final"><path class="cls-1" d="M107.79,48.28a18,18,0,0,1,1.87,22.61,54.64,54.64,0,0,1,1.07,9.38h10.2a51.2,51.2,0,0,0-13.15-32.76Z"/><path class="cls-2" d="M107.75,42.67V41.4a6.06,6.06,0,0,0-6-6h0l-3.26,0A52.44,52.44,0,0,0,91.81,32a18.07,18.07,0,0,0-10.11-4.8l-2.36-4a6,6,0,0,0-8.27-2.15l-3.84,2.25c-.5-.27-1-.53-1.53-.76A18,18,0,0,0,50.23,23l-3-1.73a6.06,6.06,0,0,0-4.6-.57A6,6,0,0,0,39,23.52L37.5,26.06A18,18,0,0,0,23,32.78,18.36,18.36,0,0,0,20.94,36l-4.12,0a6.06,6.06,0,0,0-6,6.09l0,2.48-.19.13A18.12,18.12,0,0,0,6.56,69.85,55.37,55.37,0,0,0,5.21,81.94a1.68,1.68,0,0,0,1.68,1.68H122.63a1.68,1.68,0,0,0,1.68-1.68A54.54,54.54,0,0,0,107.75,42.67ZM14.18,42.1a2.68,2.68,0,0,1,2.67-2.71l2.8,0a17.27,17.27,0,0,0-.43,2,18.44,18.44,0,0,0-5,1.34Zm11.44-7.21a14.68,14.68,0,0,1,9.92-5.41h0a14.41,14.41,0,0,1,1.6-.08,14.6,14.6,0,0,1,5.12.93A52.5,52.5,0,0,0,23.15,41.38c-.18,0-.35-.05-.53-.06A14.68,14.68,0,0,1,25.62,34.89Zm17.87-11a2.5,2.5,0,0,1,.72-.1,2.69,2.69,0,0,1,1.32.35l1.53.87a17.67,17.67,0,0,0-2.61,2.58,18.18,18.18,0,0,0-3.34-1.11l.75-1.33A2.68,2.68,0,0,1,43.49,23.91Zm20.86,1.71a14.79,14.79,0,0,1,4.86,3.49,51.3,51.3,0,0,0-21.44-.21,14.77,14.77,0,0,1,10.64-4.54A14.59,14.59,0,0,1,64.35,25.62Zm12.1-.71,1.32,2.25a17.54,17.54,0,0,0-4.9,1.14,17.41,17.41,0,0,0-2.63-2.86L72.77,24A2.68,2.68,0,0,1,76.45,24.91Zm25.24,13.84a2.7,2.7,0,0,1,2.69,2.68l0,4.06a17.69,17.69,0,0,0-7.12-2.65,18.06,18.06,0,0,0-1-4.05l5.39,0Zm-4.07,7.54A14.75,14.75,0,0,1,108.44,66,54.39,54.39,0,0,0,97.62,46.29Zm-6.35-9.84h0a14.62,14.62,0,0,1,2.52,5.81A52.63,52.63,0,0,0,75.5,30.94a15,15,0,0,1,3.86-.52A14.71,14.71,0,0,1,91.27,36.45Zm-78.65,11a14.69,14.69,0,0,1,7.16-2.74,54.43,54.43,0,0,0-12,20.56A14.78,14.78,0,0,1,12.62,47.44ZM58,31.22c26.71,0,48.54,21.85,49.4,49.05H8.59C9.45,53.07,31.28,31.22,58,31.22Zm52.74,49.05a54.64,54.64,0,0,0-1.07-9.38,18,18,0,0,0-1.87-22.61v-.77a51.2,51.2,0,0,1,13.15,32.76Z"/><path class="cls-3" d="M44.45,27.61A17.67,17.67,0,0,1,47.06,25l-1.53-.87a2.69,2.69,0,0,0-1.32-.35,2.5,2.5,0,0,0-.72.1,2.68,2.68,0,0,0-1.63,1.26l-.75,1.33A18.18,18.18,0,0,1,44.45,27.61Z"/><path class="cls-3" d="M19.65,39.37l-2.8,0a2.68,2.68,0,0,0-2.67,2.71v.63a18.44,18.44,0,0,1,5-1.34A17.27,17.27,0,0,1,19.65,39.37Z"/><path class="cls-3" d="M72.87,28.3a17.54,17.54,0,0,1,4.9-1.14l-1.32-2.25A2.68,2.68,0,0,0,72.77,24l-2.53,1.48A17.41,17.41,0,0,1,72.87,28.3Z"/><path class="cls-3" d="M96.28,38.79a18.06,18.06,0,0,1,1,4.05,17.69,17.69,0,0,1,7.12,2.65l0-4.06a2.7,2.7,0,0,0-2.69-2.68h0Z"/><path class="cls-4" d="M108.44,66A14.74,14.74,0,0,0,97.62,46.29,54.39,54.39,0,0,1,108.44,66Z"/><path class="cls-5" d="M79.36,30.42a15,15,0,0,0-3.86.52A52.63,52.63,0,0,1,93.79,42.26a14.62,14.62,0,0,0-2.52-5.81h0A14.71,14.71,0,0,0,79.36,30.42Z"/><path class="cls-4" d="M47.77,28.9a51.3,51.3,0,0,1,21.44.21,14.79,14.79,0,0,0-4.86-3.49,14.59,14.59,0,0,0-5.94-1.26A14.77,14.77,0,0,0,47.77,28.9Z"/><path class="cls-5" d="M22.62,41.32c.18,0,.35,0,.53.06A52.5,52.5,0,0,1,42.26,30.33a14.6,14.6,0,0,0-5.12-.93,14.41,14.41,0,0,0-1.6.08h0A14.77,14.77,0,0,0,22.62,41.32Z"/><path class="cls-4" d="M7.79,65.26a54.43,54.43,0,0,1,12-20.56,14.73,14.73,0,0,0-12,20.56Z"/><path class="cls-1" d="M22.12,80.27h85.27c-.86-27.2-22.69-49-49.4-49S9.45,53.07,8.59,80.27Z"/><path class="cls-6" d="M58.39,13.16,56.89,1.71a1.51,1.51,0,1,1,3-.39,2.54,2.54,0,0,1,0,.39Z"/><path class="cls-6" d="M32.06,18.39l-5.76-10a1.51,1.51,0,1,1,2.62-1.51,2.28,2.28,0,0,1,.15.36Z"/><path class="cls-6" d="M9.75,33.31l-9.16-7a1.51,1.51,0,0,1,1.84-2.4,1.24,1.24,0,0,1,.28.28Z"/><path class="cls-6" d="M83.92,18.39l3-11.15A1.51,1.51,0,1,1,89.84,8a1.94,1.94,0,0,1-.15.36Z"/><path class="cls-6" d="M106.24,33.31l7-9.16a1.51,1.51,0,0,1,2.4,1.84,1.48,1.48,0,0,1-.28.28Z"/><circle class="cls-7" cx="70.42" cy="55.98" r="6.69"/><path class="cls-2" d="M71,47.17c.49-3.57,3.47-8.38,9.45-12l-.52-.86c-6.32,3.83-9.45,9-9.94,12.85a8.83,8.83,0,0,0-.08,17.64v7L65.28,77v5h1V77.37l4.64-5.23V64.8A8.83,8.83,0,0,0,71,47.17Zm-.59,15.5A6.69,6.69,0,1,1,77.12,56,6.7,6.7,0,0,1,70.42,62.67Z"/><circle class="cls-7" cx="45.56" cy="55.98" r="6.69"/><path class="cls-2" d="M54.4,56A8.84,8.84,0,0,0,46,47.16c-.49-3.84-3.61-9-9.94-12.85l-.52.86c6,3.62,9,8.43,9.46,12a8.83,8.83,0,0,0,.08,17.63v7.34l4.65,5.23v4.57h1V77l-4.65-5.23v-7A8.85,8.85,0,0,0,54.4,56Zm-8.84-6.69A6.69,6.69,0,1,1,38.87,56,6.7,6.7,0,0,1,45.56,49.29Z"/><rect class="cls-2" x="57.49" y="78.49" width="1" height="3.46"/><rect class="cls-2" x="53.52" y="78.49" width="1" height="3.46"/><rect class="cls-2" x="61.47" y="78.49" width="1" height="3.46"/><circle class="cls-2" cx="72.93" cy="51.4" r="1.4"/><circle class="cls-2" cx="48.3" cy="51.4" r="1.4"/><path class="cls-2" d="M56.39,65.3,54.27,69a1.85,1.85,0,0,0,1.6,2.77h4.25A1.85,1.85,0,0,0,61.72,69L59.59,65.3A1.85,1.85,0,0,0,56.39,65.3Z"/><g class="cls-8"><path class="cls-2" d="M81.28,56H79.13a8.71,8.71,0,1,0-17.41,0H59.57a10.86,10.86,0,0,1,21.71,0Z"/></g><g class="cls-8"><path class="cls-2" d="M56.46,56H54.31A8.71,8.71,0,1,0,36.9,56H34.75a10.86,10.86,0,0,1,21.71,0Z"/></g><path class="cls-9" d="M155.25,21.06c0-.51-.2-.65-.47-.65s-.43.16-.43.75v.54h.9Z"/><path class="cls-9" d="M182.43,21.06c0-.51-.2-.65-.47-.65s-.43.16-.43.75v.54h.9Z"/><path class="cls-9" d="M190,24.57a1,1,0,0,0,.47-.17v-4a1,1,0,0,0-.46-.15c-.33,0-.46.31-.46.7v2.92C189.58,24.26,189.7,24.57,190,24.57Z"/><path class="cls-9" d="M167.61,23.81c0,.43.19.69.5.69a.63.63,0,0,0,.5-.32V22.45C168,22.79,167.61,23.17,167.61,23.81Z"/><polygon class="cls-9" points="196.05 41.96 193.91 58.67 198.19 58.67 196.05 41.96"/><path class="cls-9" d="M196,21.06c0-.51-.2-.65-.48-.65s-.42.16-.42.75v.54h.9Z"/><path class="cls-9" d="M141.44,23.81c0,.43.19.69.5.69a.67.67,0,0,0,.51-.32V22.45C141.85,22.79,141.44,23.17,141.44,23.81Z"/><path class="cls-9" d="M251.52,36.62c-2.63,0-3,2.48-3,5V62.27c0,2.44.2,5,3,5s3.08-2.59,3.08-5V41.64C254.6,39.1,254.31,36.62,251.52,36.62Z"/><path class="cls-9" d="M249.76,78.7c-.27,0-.43.16-.43.75V80h.9v-.63C250.23,78.84,250,78.7,249.76,78.7Z"/><path class="cls-9" d="M254.93,78.7c-.27,0-.43.16-.43.75V80h.9v-.63C255.4,78.84,255.2,78.7,254.93,78.7Z"/><polygon class="cls-2" points="177.51 73.38 177.51 37.57 183.53 37.57 183.53 30.53 162.5 30.53 162.5 37.57 168.57 37.57 168.57 73.38 177.51 73.38"/><path class="cls-2" d="M193.12,64.34H199l1.35,9h8.2l-7.51-42.85H190.93l-7.6,42.85h8.4ZM196.05,42l2.14,16.72h-4.28Z"/><path class="cls-2" d="M235.12,46v-3.7c0-7.3-2.69-12.38-11.58-12.38-9.2,0-12.08,5.45-12.08,14.34V59.73c0,8.68,2.88,14.29,12.08,14.29,9,0,11.58-5.45,11.58-12.75V57.56h-8.7v4.5c0,2.59-.1,5.24-2.88,5.24-2.63,0-3.08-2.33-3.08-5.24V41.91c0-2.6.25-5.29,3.08-5.29s2.88,2.64,2.88,5.13V46Z"/><path class="cls-2" d="M251.52,30c-9,0-12.07,5.18-12.07,14V59.89c0,8.84,3,14.13,12.07,14.13s12.18-5.29,12.18-14.13V44C263.7,35.13,260.62,30,251.52,30Zm3.08,32.32c0,2.44-.29,5-3.08,5s-3-2.59-3-5V41.64c0-2.54.35-5,3-5,2.79,0,3.08,2.48,3.08,5Z"/><polygon class="cls-5" points="147.32 36.14 147.32 32.1 135.26 32.1 135.26 58.93 147.39 58.93 147.39 54.92 141.19 54.92 141.19 46.91 145.86 46.91 145.86 42.8 141.19 42.8 141.19 36.14 147.32 36.14"/><polygon class="cls-5" points="150.07 32.1 150.07 58.93 162.16 58.93 162.16 54.92 156 54.92 156 32.1 150.07 32.1"/><rect class="cls-2" x="201.02" y="22.02" width="62.4" height="3.58"/><rect class="cls-2" x="162.4" y="80.06" width="75.07" height="3.58"/><rect class="cls-5" x="134.56" y="63.52" width="27.84" height="3.58"/><polygon class="cls-2" points="139.23 24.27 137.19 24.27 137.19 16.69 135.22 16.69 135.22 25.6 139.23 25.6 139.23 24.27"/><path class="cls-2" d="M139.83,24.16a1.47,1.47,0,0,0,1.47,1.55,1.27,1.27,0,0,0,1.22-1c0,.08.1.56.14.9h1.61a9.56,9.56,0,0,1-.11-1.58v-3a1.77,1.77,0,0,0-1.92-1.92A2,2,0,0,0,140,21.37l1.67.06,0-.46c0-.28.09-.5.4-.5s.38.23.38.56v.63C141.25,22.08,139.83,22.58,139.83,24.16Zm2.62,0a.67.67,0,0,1-.51.32c-.31,0-.5-.26-.5-.69,0-.64.41-1,1-1.36Z"/><path class="cls-2" d="M149.86,24.5c-.39,0-.71-.35-.94-.92l-1.22.54a2.25,2.25,0,0,0,2.3,1.59A1.78,1.78,0,0,0,152,24a2.46,2.46,0,0,0-1.15-1.81l-.45-.39c-.56-.46-.89-.76-.89-1a.35.35,0,0,1,.39-.36c.39,0,.71.5.85.91l1.15-.53a2,2,0,0,0-2-1.64,1.84,1.84,0,0,0-2,1.75,2.29,2.29,0,0,0,1.08,1.83l.47.38c.66.55.88.74.88,1.08S150.13,24.5,149.86,24.5Z"/><path class="cls-2" d="M154.79,25.71c1.32,0,2.11-.66,2.11-1.94v-.62h-1.65v.67c0,.46-.2.62-.46.62s-.44-.19-.44-.69V22.53h2.55V21.26a1.88,1.88,0,0,0-2.11-2.13,2,2,0,0,0-2.22,2.13v2.33A2,2,0,0,0,154.79,25.71Zm-.44-4.55c0-.59.16-.75.43-.75s.47.14.47.65v.64h-.9Z"/><path class="cls-2" d="M159.64,20.59a1.11,1.11,0,0,1,.59-.23c.26,0,.39.14.39.49V25.6h1.74v-5a1.05,1.05,0,0,1,.59-.23c.25,0,.37.14.37.49V25.6h1.76V20.66c0-1-.48-1.54-1.23-1.54a2.09,2.09,0,0,0-1.62.76,1.12,1.12,0,0,0-1.09-.76,2.09,2.09,0,0,0-1.5.63v-.51h-1.76V25.6h1.76Z"/><path class="cls-2" d="M166,24.16a1.47,1.47,0,0,0,1.47,1.55,1.27,1.27,0,0,0,1.22-1c0,.08.1.56.14.9h1.61a9.56,9.56,0,0,1-.11-1.58v-3a1.77,1.77,0,0,0-1.92-1.92,2,2,0,0,0-2.28,2.24l1.67.06,0-.46c0-.28.09-.5.4-.5s.37.23.37.56v.63C167.41,22.08,166,22.58,166,24.16Zm2.61,0a.63.63,0,0,1-.5.32c-.31,0-.5-.26-.5-.69,0-.64.41-1,1-1.36Z"/><rect class="cls-2" x="171.41" y="19.24" width="1.79" height="6.36"/><rect class="cls-2" x="171.4" y="16.92" width="1.8" height="1.24"/><path class="cls-2" d="M176.1,20.63a1.18,1.18,0,0,1,.56-.23c.28,0,.37.16.37.47V25.6h1.78v-5c0-.85-.4-1.49-1.18-1.49a2.22,2.22,0,0,0-1.53.75v-.64h-1.79V25.6h1.79Z"/><path class="cls-2" d="M182,25.71c1.32,0,2.11-.66,2.11-1.94v-.62h-1.65v.67c0,.46-.2.62-.46.62s-.44-.19-.44-.69V22.53h2.55V21.26A1.88,1.88,0,0,0,182,19.13a2,2,0,0,0-2.21,2.13v2.33A2,2,0,0,0,182,25.71Zm-.44-4.55c0-.59.16-.75.43-.75s.47.14.47.65v.64h-.9Z"/><path class="cls-2" d="M189.25,25.71a1.84,1.84,0,0,0,1.25-.6v.49h1.8V16.69h-1.8v2.95a1.89,1.89,0,0,0-1.25-.51c-1,0-1.48.82-1.48,2v2.62C187.77,25.05,188.3,25.71,189.25,25.71Zm.33-4.77c0-.39.13-.7.46-.7a1,1,0,0,1,.46.15v4a1,1,0,0,1-.47.17c-.33,0-.45-.31-.45-.71Z"/><path class="cls-2" d="M195.49,25.71c1.32,0,2.11-.66,2.11-1.94v-.62H196v.67c0,.46-.2.62-.46.62s-.44-.19-.44-.69V22.53h2.55V21.26a1.89,1.89,0,0,0-2.11-2.13,2,2,0,0,0-2.22,2.13v2.33A2,2,0,0,0,195.49,25.71Zm-.44-4.55c0-.59.16-.75.42-.75s.48.14.48.65v.64h-.9Z"/><polygon class="cls-2" points="244.97 81.23 244.54 77.53 243.25 77.53 242.75 81.14 242.29 77.53 240.79 77.53 241.73 83.89 243.25 83.89 243.86 80.31 244.41 83.89 245.95 83.89 246.9 77.53 245.51 77.53 244.97 81.23"/><path class="cls-2" d="M249.77,77.42a2,2,0,0,0-2.21,2.12v2.34A2,2,0,0,0,249.77,84c1.32,0,2.11-.66,2.11-2v-.61h-1.65v.67c0,.46-.2.61-.46.61s-.44-.18-.44-.68V80.82h2.55V79.54A1.88,1.88,0,0,0,249.77,77.42Zm.46,2.56h-.9v-.53c0-.59.16-.75.43-.75s.47.14.47.65Z"/><path class="cls-2" d="M254.94,77.42a2,2,0,0,0-2.21,2.12v2.34A2,2,0,0,0,254.94,84c1.32,0,2.11-.66,2.11-2v-.61H255.4v.67c0,.46-.2.61-.46.61s-.44-.18-.44-.68V80.82h2.55V79.54A1.88,1.88,0,0,0,254.94,77.42ZM255.4,80h-.9v-.53c0-.59.16-.75.43-.75s.47.14.47.65Z"/><polygon class="cls-2" points="261.37 77.53 259.81 79.92 259.81 74.98 258.03 74.98 258.03 83.89 259.81 83.89 259.81 81.47 260.29 80.86 261.41 83.89 263.37 83.89 261.69 80.14 263.39 77.53 261.37 77.53"/></g></g></svg>