<svg xmlns="http://www.w3.org/2000/svg" viewBox="0 0 129.14 159.52"><defs><style>.cls-1{fill:none;}.cls-2{fill:#5e1834;}.cls-3{fill:#dd2b45;}.cls-4{fill:#fff9ee;}.cls-5{fill:#00a14b;}.cls-6{fill:#8c4160;}.cls-7{fill:#fff;}.cls-8{fill:#fbb040;}.cls-9{opacity:0.4;}</style></defs><title>ETW_logo-vertical</title><g id="Layer_2" data-name="Layer 2"><g id="final"><path class="cls-1" d="M20.69,96.58c0-.51-.2-.65-.47-.65s-.43.16-.43.75v.53h.9Z"/><path class="cls-1" d="M47.87,96.58c0-.51-.2-.65-.47-.65s-.43.16-.43.75v.53h.9Z"/><path class="cls-1" d="M33.06,99.33c0,.43.18.69.49.69a.65.65,0,0,0,.51-.32V98A1.57,1.57,0,0,0,33.06,99.33Z"/><path class="cls-1" d="M6.89,99.33c0,.43.18.69.49.69a.65.65,0,0,0,.51-.32V98A1.57,1.57,0,0,0,6.89,99.33Z"/><polygon class="cls-1" points="61.5 117.47 59.36 134.19 63.63 134.19 61.5 117.47"/><path class="cls-1" d="M55.47,100.09a1,1,0,0,0,.48-.17v-4a1.08,1.08,0,0,0-.47-.15c-.33,0-.46.31-.46.7v2.92C55,99.78,55.14,100.09,55.47,100.09Z"/><path class="cls-1" d="M61.39,96.58c0-.51-.2-.65-.47-.65s-.43.16-.43.75v.53h.9Z"/><path class="cls-1" d="M117,112.13c-2.63,0-3,2.49-3,5v20.63c0,2.43.2,5,3,5s3.09-2.59,3.09-5V117.16C120.05,114.62,119.75,112.13,117,112.13Z"/><path class="cls-1" d="M120.37,154.21c-.26,0-.43.17-.43.75v.54h.9v-.64C120.84,154.36,120.65,154.21,120.37,154.21Z"/><path class="cls-1" d="M115.2,154.21c-.26,0-.43.17-.43.75v.54h.9v-.64C115.67,154.36,115.48,154.21,115.2,154.21Z"/><polygon class="cls-2" points="42.95 148.9 42.95 113.08 48.97 113.08 48.97 106.05 27.95 106.05 27.95 113.08 34.01 113.08 34.01 148.9 42.95 148.9"/><path class="cls-2" d="M58.56,139.85h5.92l1.34,9.05H74l-7.5-42.85H56.38L48.77,148.9h8.4Zm2.94-22.37,2.13,16.71H59.36Z"/><path class="cls-2" d="M100.56,121.55v-3.7c0-7.31-2.68-12.38-11.58-12.38-9.19,0-12.07,5.45-12.07,14.33v15.45c0,8.68,2.88,14.28,12.07,14.28,9,0,11.58-5.45,11.58-12.75v-3.7h-8.7v4.5c0,2.59-.09,5.23-2.88,5.23-2.63,0-3.08-2.32-3.08-5.23V117.42c0-2.59.25-5.29,3.08-5.29s2.88,2.65,2.88,5.13v4.29Z"/><path class="cls-2" d="M117,105.47c-9,0-12.07,5.18-12.07,14v15.93c0,8.83,3,14.12,12.07,14.12s12.18-5.29,12.18-14.12V119.48C129.14,110.65,126.06,105.47,117,105.47Zm3.09,32.32c0,2.43-.3,5-3.09,5s-3-2.59-3-5V117.16c0-2.54.35-5,3-5,2.79,0,3.09,2.49,3.09,5Z"/><polygon class="cls-3" points="12.76 111.66 12.76 107.62 0.7 107.62 0.7 134.45 12.83 134.45 12.83 130.44 6.63 130.44 6.63 122.43 11.3 122.43 11.3 118.32 6.63 118.32 6.63 111.66 12.76 111.66"/><polygon class="cls-3" points="15.51 107.62 15.51 134.45 27.6 134.45 27.6 130.44 21.44 130.44 21.44 107.62 15.51 107.62"/><rect class="cls-2" x="66.46" y="97.54" width="62.4" height="3.58"/><rect class="cls-2" x="27.84" y="155.57" width="75.07" height="3.58"/><rect class="cls-3" y="139.03" width="27.84" height="3.58"/><polygon class="cls-2" points="4.68 99.79 2.63 99.79 2.63 92.21 0.66 92.21 0.66 101.12 4.68 101.12 4.68 99.79"/><path class="cls-2" d="M5.27,99.68a1.48,1.48,0,0,0,1.47,1.55,1.29,1.29,0,0,0,1.23-1c0,.07.09.56.14.9h1.6a9.56,9.56,0,0,1-.11-1.58v-3a1.76,1.76,0,0,0-1.92-1.92A2,2,0,0,0,5.4,96.88L7.07,97l0-.46c0-.29.09-.51.39-.51s.38.23.38.56v.64C6.69,97.6,5.27,98.09,5.27,99.68Zm2.62,0a.65.65,0,0,1-.51.32c-.31,0-.49-.26-.49-.69a1.57,1.57,0,0,1,1-1.37Z"/><path class="cls-2" d="M15.3,100c-.38,0-.7-.35-.93-.92l-1.22.53a2.23,2.23,0,0,0,2.29,1.6,1.79,1.79,0,0,0,2-1.73,2.44,2.44,0,0,0-1.14-1.8l-.45-.4c-.56-.45-.89-.76-.89-1a.34.34,0,0,1,.38-.36c.4,0,.72.5.85.91l1.15-.53a2,2,0,0,0-2-1.64,1.84,1.84,0,0,0-2,1.75,2.34,2.34,0,0,0,1.09,1.83l.46.38c.66.55.88.74.88,1.08S15.58,100,15.3,100Z"/><path class="cls-2" d="M20.23,101.23c1.32,0,2.11-.66,2.11-2v-.61H20.69v.67c0,.46-.2.61-.46.61s-.44-.18-.44-.68V98.05h2.55V96.77a1.88,1.88,0,0,0-2.11-2.12A2,2,0,0,0,18,96.77v2.34A2,2,0,0,0,20.23,101.23Zm-.44-4.55c0-.59.16-.75.43-.75s.47.14.47.65v.63h-.9Z"/><path class="cls-2" d="M25.08,96.1a1.2,1.2,0,0,1,.59-.23c.26,0,.39.15.39.5v4.75H27.8v-5a1.2,1.2,0,0,1,.59-.23c.26,0,.38.15.38.5v4.75h1.76V96.18c0-1-.49-1.54-1.24-1.54a2.06,2.06,0,0,0-1.61.76,1.12,1.12,0,0,0-1.09-.76,2.1,2.1,0,0,0-1.51.63v-.51H23.32v6.36h1.76Z"/><path class="cls-2" d="M31.44,99.68a1.47,1.47,0,0,0,1.47,1.55,1.27,1.27,0,0,0,1.22-1c0,.07.1.56.15.9h1.6a9.56,9.56,0,0,1-.11-1.58v-3a1.76,1.76,0,0,0-1.92-1.92,2,2,0,0,0-2.28,2.23l1.67.07,0-.46c0-.29.08-.51.39-.51s.38.23.38.56v.64C32.86,97.6,31.44,98.09,31.44,99.68Zm2.62,0a.65.65,0,0,1-.51.32c-.31,0-.49-.26-.49-.69a1.57,1.57,0,0,1,1-1.37Z"/><rect class="cls-2" x="36.85" y="94.76" width="1.79" height="6.36"/><rect class="cls-2" x="36.84" y="92.44" width="1.8" height="1.24"/><path class="cls-2" d="M41.55,96.15a1.09,1.09,0,0,1,.56-.23c.27,0,.36.16.36.47v4.73h1.78v-5c0-.85-.39-1.49-1.17-1.49a2.2,2.2,0,0,0-1.53.75v-.64h-1.8v6.36h1.8Z"/><path class="cls-2" d="M47.41,101.23c1.32,0,2.11-.66,2.11-2v-.61H47.87v.67c0,.46-.2.61-.46.61s-.44-.18-.44-.68V98.05h2.55V96.77a1.88,1.88,0,0,0-2.11-2.12,2,2,0,0,0-2.21,2.12v2.34A2,2,0,0,0,47.41,101.23ZM47,96.68c0-.59.17-.75.43-.75s.47.14.47.65v.63H47Z"/><path class="cls-2" d="M54.69,101.23a1.85,1.85,0,0,0,1.26-.61v.5h1.79V92.21H56v3a1.94,1.94,0,0,0-1.26-.51c-1,0-1.47.82-1.47,2v2.63C53.22,100.57,53.75,101.23,54.69,101.23ZM55,96.46c0-.39.13-.7.46-.7a1.08,1.08,0,0,1,.47.15v4a1,1,0,0,1-.48.17c-.33,0-.45-.31-.45-.71Z"/><path class="cls-2" d="M60.93,101.23c1.32,0,2.11-.66,2.11-2v-.61H61.39v.67c0,.46-.2.61-.46.61s-.44-.18-.44-.68V98.05H63V96.77a1.88,1.88,0,0,0-2.11-2.12,2,2,0,0,0-2.21,2.12v2.34A2,2,0,0,0,60.93,101.23Zm-.44-4.55c0-.59.16-.75.43-.75s.47.14.47.65v.63h-.9Z"/><polygon class="cls-2" points="110.42 156.75 109.99 153.05 108.69 153.05 108.19 156.66 107.73 153.05 106.24 153.05 107.17 159.41 108.69 159.41 109.31 155.83 109.86 159.41 111.39 159.41 112.34 153.05 110.96 153.05 110.42 156.75"/><path class="cls-2" d="M115.21,152.94a2,2,0,0,0-2.21,2.12v2.33a2,2,0,0,0,2.21,2.13c1.32,0,2.11-.66,2.11-2V157h-1.65v.67c0,.47-.19.62-.46.62s-.44-.19-.44-.68v-1.22h2.55v-1.28A1.88,1.88,0,0,0,115.21,152.94Zm.46,2.56h-.9V155c0-.58.17-.75.43-.75s.47.15.47.65Z"/><path class="cls-2" d="M120.38,152.94a2,2,0,0,0-2.21,2.12v2.33a2,2,0,0,0,2.21,2.13c1.32,0,2.11-.66,2.11-2V157h-1.65v.67c0,.47-.19.62-.46.62s-.44-.19-.44-.68v-1.22h2.55v-1.28A1.88,1.88,0,0,0,120.38,152.94Zm.46,2.56h-.9V155c0-.58.17-.75.43-.75s.47.15.47.65Z"/><polygon class="cls-2" points="126.82 153.05 125.25 155.44 125.25 150.5 123.47 150.5 123.47 159.41 125.25 159.41 125.25 156.99 125.73 156.38 126.85 159.41 128.81 159.41 127.14 155.66 128.83 153.05 126.82 153.05"/><path class="cls-4" d="M108.82,48.28a18,18,0,0,1,1.87,22.61,54.64,54.64,0,0,1,1.07,9.38H122a51.24,51.24,0,0,0-13.14-32.76Z"/><path class="cls-2" d="M108.78,42.67V41.4a6.05,6.05,0,0,0-6-6h0l-3.25,0A53.26,53.26,0,0,0,92.84,32a18.07,18.07,0,0,0-10.11-4.8l-2.35-4a6.05,6.05,0,0,0-8.28-2.15l-3.84,2.25c-.49-.27-1-.53-1.52-.76A18,18,0,0,0,51.26,23l-3-1.73A6,6,0,0,0,40,23.52l-1.44,2.54a18,18,0,0,0-14.49,6.72A18.41,18.41,0,0,0,22,36l-4.11,0a6.06,6.06,0,0,0-6,6.09l0,2.48-.2.13A18.13,18.13,0,0,0,7.59,69.85,55.37,55.37,0,0,0,6.24,81.94a1.68,1.68,0,0,0,1.68,1.68H123.67a1.68,1.68,0,0,0,1.67-1.68A54.5,54.5,0,0,0,108.78,42.67ZM15.21,42.1a2.68,2.68,0,0,1,2.67-2.71l2.8,0a19.59,19.59,0,0,0-.43,2,18.28,18.28,0,0,0-5,1.34Zm11.45-7.21a14.63,14.63,0,0,1,9.92-5.41h0a14.11,14.11,0,0,1,1.59-.08,14.55,14.55,0,0,1,5.12.93A52.5,52.5,0,0,0,24.18,41.38c-.17,0-.35-.05-.53-.06A14.7,14.7,0,0,1,26.66,34.89Zm17.86-11a2.55,2.55,0,0,1,.72-.1,2.69,2.69,0,0,1,1.32.35l1.53.87a17.67,17.67,0,0,0-2.61,2.58,17.93,17.93,0,0,0-3.34-1.11l.75-1.33A2.71,2.71,0,0,1,44.52,23.91Zm20.86,1.71a14.59,14.59,0,0,1,4.86,3.49A51.3,51.3,0,0,0,48.8,28.9a14.8,14.8,0,0,1,10.64-4.54A14.55,14.55,0,0,1,65.38,25.62Zm12.1-.71,1.32,2.25a17.54,17.54,0,0,0-4.9,1.14,17.35,17.35,0,0,0-2.62-2.86L73.8,24A2.68,2.68,0,0,1,77.48,24.91Zm25.24,13.84a2.7,2.7,0,0,1,2.7,2.68l0,4.06a17.79,17.79,0,0,0-7.13-2.65,17.54,17.54,0,0,0-1-4.05l5.39,0Zm-4.07,7.54A14.73,14.73,0,0,1,109.47,66,54.24,54.24,0,0,0,98.65,46.29ZM92.3,36.45h0a14.64,14.64,0,0,1,2.53,5.81,52.58,52.58,0,0,0-18.3-11.32,15,15,0,0,1,3.87-.52A14.69,14.69,0,0,1,92.3,36.45Zm-78.64,11a14.66,14.66,0,0,1,7.16-2.74,54.3,54.3,0,0,0-12,20.56A14.77,14.77,0,0,1,13.66,47.44ZM59,31.22c26.71,0,48.53,21.85,49.4,49.05H9.62C10.49,53.07,32.32,31.22,59,31.22Zm52.73,49.05a54.64,54.64,0,0,0-1.07-9.38,18,18,0,0,0-1.87-22.61v-.77A51.24,51.24,0,0,1,122,80.27Z"/><path class="cls-5" d="M45.48,27.61A17.67,17.67,0,0,1,48.09,25l-1.53-.87a2.69,2.69,0,0,0-1.32-.35,2.55,2.55,0,0,0-.72.1,2.71,2.71,0,0,0-1.63,1.26l-.75,1.33A17.93,17.93,0,0,1,45.48,27.61Z"/><path class="cls-5" d="M20.68,39.37l-2.8,0a2.68,2.68,0,0,0-2.67,2.71v.63a18.28,18.28,0,0,1,5-1.34A19.59,19.59,0,0,1,20.68,39.37Z"/><path class="cls-5" d="M73.9,28.3a17.54,17.54,0,0,1,4.9-1.14l-1.32-2.25A2.68,2.68,0,0,0,73.8,24l-2.52,1.48A17.35,17.35,0,0,1,73.9,28.3Z"/><path class="cls-5" d="M97.31,38.79a17.54,17.54,0,0,1,1,4.05,17.79,17.79,0,0,1,7.13,2.65l0-4.06a2.7,2.7,0,0,0-2.7-2.68h0Z"/><path class="cls-6" d="M109.47,66A14.74,14.74,0,0,0,98.65,46.29,54.24,54.24,0,0,1,109.47,66Z"/><path class="cls-3" d="M80.4,30.42a15,15,0,0,0-3.87.52,52.58,52.58,0,0,1,18.3,11.32,14.64,14.64,0,0,0-2.53-5.81h0A14.69,14.69,0,0,0,80.4,30.42Z"/><path class="cls-6" d="M48.8,28.9a51.3,51.3,0,0,1,21.44.21,14.67,14.67,0,0,0-10.8-4.75A14.8,14.8,0,0,0,48.8,28.9Z"/><path class="cls-3" d="M23.65,41.32c.18,0,.36,0,.53.06A52.5,52.5,0,0,1,43.29,30.33a14.55,14.55,0,0,0-5.12-.93,14.11,14.11,0,0,0-1.59.08h0A14.8,14.8,0,0,0,23.65,41.32Z"/><path class="cls-6" d="M8.83,65.26a54.3,54.3,0,0,1,12-20.56,14.73,14.73,0,0,0-12,20.56Z"/><path class="cls-4" d="M23.16,80.27h85.27c-.87-27.2-22.69-49-49.4-49S10.49,53.07,9.62,80.27Z"/><path class="cls-7" d="M59.42,13.16,57.92,1.71a1.51,1.51,0,1,1,3-.39,1.28,1.28,0,0,1,0,.39Z"/><path class="cls-7" d="M33.1,18.39l-5.77-10A1.51,1.51,0,1,1,30,6.88a1.25,1.25,0,0,1,.15.36Z"/><path class="cls-7" d="M10.78,33.31l-9.16-7a1.52,1.52,0,0,1,1.85-2.4,1.85,1.85,0,0,1,.28.28Z"/><path class="cls-7" d="M85,18.39,88,7.24A1.51,1.51,0,1,1,90.87,8a1.44,1.44,0,0,1-.15.36Z"/><path class="cls-7" d="M107.27,33.31l7-9.16A1.51,1.51,0,1,1,116.7,26a1.44,1.44,0,0,1-.27.28Z"/><circle class="cls-8" cx="71.46" cy="55.98" r="6.69"/><path class="cls-2" d="M72,47.17c.5-3.57,3.47-8.38,9.45-12L81,34.31c-6.33,3.83-9.45,9-10,12.85A8.83,8.83,0,0,0,71,64.8v7L66.31,77v5h1V77.37L72,72.14V64.8A8.83,8.83,0,0,0,72,47.17Zm-.58,15.5A6.69,6.69,0,1,1,78.15,56,6.7,6.7,0,0,1,71.46,62.67Z"/><circle class="cls-8" cx="46.6" cy="55.98" r="6.69"/><path class="cls-2" d="M55.44,56A8.84,8.84,0,0,0,47,47.16c-.5-3.84-3.62-9-10-12.85l-.51.86c6,3.62,8.95,8.43,9.45,12A8.83,8.83,0,0,0,46.1,64.8v7.34l4.64,5.23v4.57h1V77L47.1,71.76v-7A8.85,8.85,0,0,0,55.44,56ZM46.6,49.29A6.69,6.69,0,1,1,39.9,56,6.7,6.7,0,0,1,46.6,49.29Z"/><rect class="cls-2" x="58.53" y="78.49" width="1" height="3.46"/><rect class="cls-2" x="54.55" y="78.49" width="1" height="3.46"/><rect class="cls-2" x="62.5" y="78.49" width="1" height="3.46"/><circle class="cls-2" cx="73.96" cy="51.4" r="1.4"/><circle class="cls-2" cx="49.34" cy="51.4" r="1.4"/><path class="cls-2" d="M57.43,65.3,55.3,69a1.85,1.85,0,0,0,1.6,2.77h4.25A1.85,1.85,0,0,0,62.75,69L60.62,65.3A1.84,1.84,0,0,0,57.43,65.3Z"/><g class="cls-9"><path class="cls-2" d="M82.31,56H80.16a8.71,8.71,0,1,0-17.41,0H60.6a10.86,10.86,0,0,1,21.71,0Z"/></g><g class="cls-9"><path class="cls-2" d="M57.49,56H55.35a8.71,8.71,0,0,0-17.42,0H35.79a10.85,10.85,0,0,1,21.7,0Z"/></g></g></g></svg>